<svg xmlns="http://www.w3.org/2000/svg" viewBox="0 0 526.7 544.22"><g id="Layer_2" data-name="Layer 2"><g id="temperature"><path d="M32.83,363A32.86,32.86,0,0,1,0,330.16V32.83A32.87,32.87,0,0,1,32.83,0H493.88A32.86,32.86,0,0,1,526.7,32.83V330.16A32.85,32.85,0,0,1,493.88,363Z" fill="#cecece"/><path d="M24,330.16V32.83A32.87,32.87,0,0,1,56.85,0h-24A32.87,32.87,0,0,0,0,32.83V330.16A32.86,32.86,0,0,0,32.83,363h24A32.86,32.86,0,0,1,24,330.16Z" fill="#afafaf"/><path d="M502.68,330.16V32.83A32.87,32.87,0,0,0,469.85,0h24A32.87,32.87,0,0,1,526.7,32.83V330.16A32.86,32.86,0,0,1,493.87,363h-24A32.86,32.86,0,0,0,502.68,330.16Z" fill="#e2e2e2"/><path d="M506.5,301.33A12.66,12.66,0,0,1,493.87,314h-461A12.66,12.66,0,0,1,20.2,301.33V32.82A12.66,12.66,0,0,1,32.83,20.2H493.88A12.66,12.66,0,0,1,506.5,32.82V301.33Z" fill="#a6e7f0"/><path d="M35.71,301.33V32.82c0-6.94,3.67-12.62,8.15-12.62H28.35c-4.48,0-8.15,5.68-8.15,12.62V301.33c0,6.95,3.67,12.63,8.15,12.63H43.86C39.38,314,35.71,308.28,35.71,301.33Z" fill="#2ed1e2"/><path d="M490.75,301.33V32.82c0-6.94-3.72-12.62-8.27-12.62h15.74c4.56,0,8.28,5.68,8.28,12.62V301.33c0,6.95-3.72,12.63-8.28,12.63H482.48C487,314,490.75,308.28,490.75,301.33Z" fill="#6bd9e7"/><path d="M171.61,416.21H355.09V438.3H171.61Z" fill="#9e9e9e"/><path d="M171.61,416.21h24V438.3h-24Z" fill="#707070"/><path d="M197.7,363H329v53.23H197.7Z" fill="#cecece"/><path d="M197.7,363h24v53.23h-24Z" fill="#afafaf"/><circle cx="263.35" cy="338.47" r="10.81" fill="#9e9e9e"/><path d="M159.16,297.6H57.46a12,12,0,0,1-12-12v-237a12,12,0,0,1,12-12h101.7a12,12,0,0,1,12,12v237A12,12,0,0,1,159.16,297.6Z" fill="#62c125"/><path d="M203.4,36.56h77.67v77.67H203.4Z" fill="#ee6161"/><path d="M303.49,36.56h77.67v77.67H303.49Z" fill="#ee6161"/><path d="M403.58,36.56h77.67v77.67H403.58Z" fill="#ee6161"/><path d="M203.4,139.85H481.25v98.09H203.4Z" fill="#e5e5e5"/><path d="M237.58,194.3h14v43.64h-14Z" fill="#f8af23"/><path d="M262.7,168.67h14v69.27h-14Z" fill="#63bce7"/><path d="M322.75,178.58h14v59.36h-14Z" fill="#f8af23"/><path d="M347.88,194.3h14v43.64h-14Z" fill="#63bce7"/><path d="M407.93,184.29h14v53.65h-14Z" fill="#f8af23"/><path d="M433.05,214.92h14v23h-14Z" fill="#63bce7"/><path d="M150.05,57.18H66.57a3.61,3.61,0,0,0,0,7.21h83.48a3.61,3.61,0,0,0,0-7.21Z" fill="#57565c"/><path d="M150.05,92.61H66.57a3.61,3.61,0,0,0,0,7.21h83.48a3.61,3.61,0,0,0,0-7.21Z" fill="#57565c"/><path d="M150.05,128H66.57a3.61,3.61,0,0,0,0,7.21h83.48a3.61,3.61,0,0,0,0-7.21Z" fill="#57565c"/><path d="M150.05,163.48H66.57a3.6,3.6,0,0,0,0,7.2h83.48a3.6,3.6,0,0,0,0-7.2Z" fill="#57565c"/><path d="M150.05,198.91H66.57a3.6,3.6,0,1,0,0,7.2h83.48a3.6,3.6,0,0,0,0-7.2Z" fill="#57565c"/><path d="M150.05,234.34H66.57a3.61,3.61,0,0,0,0,7.21h83.48a3.61,3.61,0,0,0,0-7.21Z" fill="#57565c"/><path d="M268.51,90.53h-8.16l-8.77-34.76a3.6,3.6,0,0,0-6.86-.4L233.94,83.71,228.66,68.9a3.59,3.59,0,0,0-3.34-2.39,3.64,3.64,0,0,0-3.41,2.3l-9.31,24a3.59,3.59,0,0,0,2.06,4.66,3.45,3.45,0,0,0,1.3.25,3.61,3.61,0,0,0,3.36-2.3l5.8-15,5.31,14.89a3.61,3.61,0,0,0,3.35,2.4h0a3.6,3.6,0,0,0,3.37-2.33l10.2-26.79L254.05,95a3.59,3.59,0,0,0,3.49,2.72h11a3.61,3.61,0,1,0,0-7.21Z" fill="#57565c"/><path d="M368.6,90.53h-8.71L349.62,69.36a3.61,3.61,0,0,0-3.17-2,3.48,3.48,0,0,0-3.25,1.9l-8.07,15-6.28-24.72a3.6,3.6,0,0,0-3.45-2.72,3.68,3.68,0,0,0-3.51,2.65l-9.31,33.7a3.61,3.61,0,0,0,2.51,4.44,4,4,0,0,0,1,.13,3.62,3.62,0,0,0,3.48-2.65l5.68-20.6L330.42,95a3.61,3.61,0,0,0,6.67.82l9.13-17,8.18,16.86a3.6,3.6,0,0,0,3.24,2h11a3.61,3.61,0,0,0,0-7.21Z" fill="#57565c"/><path d="M414.59,97.38a3.6,3.6,0,0,0,4.8-1.7l5.7-11.92,5.66,11.92a3.61,3.61,0,0,0,6.43.15l9.12-17,8.18,16.86a3.6,3.6,0,0,0,6.74-.71L468,68.08h4.54a3.61,3.61,0,0,0,0-7.21h-7.36a3.6,3.6,0,0,0-3.49,2.73l-5,20-6.93-14.27a3.61,3.61,0,0,0-3.17-2,3.48,3.48,0,0,0-3.25,1.9L434.2,86.15l-5.85-12.3a3.6,3.6,0,0,0-3.25-2.06h0a3.62,3.62,0,0,0-3.25,2l-9,18.74a3.61,3.61,0,0,0,1.71,4.8Z" fill="#57565c"/><path d="M481.25,258.35H203.4a3.61,3.61,0,1,0,0,7.21H481.25a3.61,3.61,0,0,0,0-7.21Z" fill="#57565c"/><path d="M481.25,282H203.4a3.6,3.6,0,1,0,0,7.2H481.25a3.6,3.6,0,1,0,0-7.2Z" fill="#57565c"/><path d="M353.58,253.68v38.44a76.72,76.72,0,0,1-28.83,60h-9.29l9.29,36.07H228.67L238,352.13h-9.29a76.72,76.72,0,0,1-28.83-60V253.68a76.87,76.87,0,0,1,153.74,0Z" fill="#ffdaaa"/><path d="M459.28,541.94H94.15l9.6-86.48A38.44,38.44,0,0,1,142.19,417l86.48-28.83h96.08L411.23,417a38.44,38.44,0,0,1,38.44,38.43Z" fill="#2ed1e2"/><path d="M485.09,544.22H62.81l5-43.67c0-10.95,26-20.76,50.59-20.76l100-14.87H329.51l100,14.87c24.55,0,49.47,6.78,49.47,17.73Z" fill="#e94444"/></g></g></svg>