<svg xmlns="http://www.w3.org/2000/svg" viewBox="0 0 545.3 543.6"><g id="Layer_2" data-name="Layer 2"><g id="temperature"><g id="real_time_api" data-name="real time api"><rect x="52.58" y="310.39" width="16.96" height="16.96" fill="#62c125"/><rect x="52.58" y="360.42" width="16.96" height="16.96" fill="#62c125"/><rect x="52.58" y="411.3" width="16.96" height="16.96" fill="#62c125"/><path d="M190,329a168.24,168.24,0,0,0,4.24,54.28l-33.07,24.59,24.59,47.49,39-12.72a165.63,165.63,0,0,0,41.56,35.62l-5.94,39.86,50.88,16.11,18.66-36.46a168.24,168.24,0,0,0,54.28-4.24l24.59,33.07,47.49-24.59-12.72-39a146.63,146.63,0,0,0,34.77-41.56L519,427.42l16.11-50.89L498.65,357c1.7-17.81,0-36.47-4.24-54.28l33.08-24.59-25.44-47.49-39,12.72a165.63,165.63,0,0,0-41.56-35.62l5.94-40.7L376.53,151l-18.65,37.32c-17.81-1.7-36.47,0-54.28,4.24L279,159.43,231.52,184l12.72,39a146.59,146.59,0,0,0-34.77,41.55l-40.71-5.93-16.11,50.88Z" fill="#fff"/><ellipse cx="343.68" cy="343.57" rx="117.4" ry="117.61" fill="#e94444"/><path d="M319.52,374.39h-9V330.15a13.75,13.75,0,0,0-27.5,0v44.24h-9V330.15a22.72,22.72,0,0,1,45.43,0Z" fill="#f9f7f8"/><path d="M340.44,374.39h-9V307.44h23.91a17.34,17.34,0,0,1,17.33,17.33v7.78a17.34,17.34,0,0,1-17.33,17.33H340.44Zm0-33.48h14.95a8.17,8.17,0,0,0,8.37-8.36v-7.78a8.17,8.17,0,0,0-8.37-8.36H340.44Z" fill="#f9f7f8"/><polygon points="407.99 316.41 407.99 307.44 381.69 307.44 381.69 316.41 390.65 316.41 390.65 369.61 381.69 369.61 381.69 378.57 407.99 378.57 407.99 369.61 399.62 369.61 399.62 316.41 407.99 316.41" fill="#f9f7f8"/><rect x="278.28" y="336.73" width="36.46" height="8.97" fill="#f9f7f8"/><path d="M293.43,89.89V87.35c0-43.25-35.62-78.87-78.87-78.87a78.79,78.79,0,0,0-68.7,39.86c-9.32-8.48-22-13.57-36.46-13.57-30.53,0-56,25.44-56,56v.85c-26.29,10.18-44.95,36.47-44.95,67a71.12,71.12,0,0,0,71.24,71.23H273.07a71.12,71.12,0,0,0,71.24-71.23C346,126.36,324,98.37,293.43,89.89Z" fill="#fff"/><path d="M507.13,351.94c.85-15.26,0-30.53-4.24-45.79l33.93-25.45-31.38-60.21-40.71,13.57c-10.18-11.87-22.05-21.2-35.62-29.68L435.9,162l-64.45-20.36-18.66,38.17h-1.7a85.29,85.29,0,0,0,2.55-21.2c0-33.08-21.2-63.61-51.73-74.63A87.11,87.11,0,0,0,214.56,0c-28,0-54.28,13.57-71.24,36.47a68,68,0,0,0-33.92-9.33C75.48,27.14,47.49,53.43,45,86.5,17,100.07,0,127.21,0,158.59A79.63,79.63,0,0,0,79.72,238.3H217.1c-4.24,5.94-8.48,11-12.72,17.81L162,249.33l-19.51,65.3,38.16,18.65c-.84,15.27,0,30.53,4.24,45.8L151,404.52l31.38,60.21L223,451.16c10.17,11.88,22.05,21.2,35.62,29.68l-6.79,42.41,64.45,20.35L335,505.44a167.75,167.75,0,0,0,45.79-4.24l25.45,33.92,60.21-31.38L452.86,463c11.87-10.18,21.2-22.05,29.68-35.62l42.4,6.78,20.36-65.3ZM17.81,158.59c0-26.29,15.26-49.19,39.86-58.52l5.09-3.39V90.74a47.41,47.41,0,0,1,47.49-47.49,49.81,49.81,0,0,1,30.53,11l7.63,6.78,5.94-8.48C167.07,30.53,190,17,215.4,17a70.22,70.22,0,0,1,70.39,70.39v9.33l5.94,1.69c27.14,7.64,45.79,33.08,45.79,61.06a62.61,62.61,0,0,1-62.75,62.76H80.56C45.79,222.19,17.81,193.36,17.81,158.59ZM513.07,417.24l-39-5.94-3.39,5.09a136.12,136.12,0,0,1-33.08,39.86l-4.24,3.39L446.07,497,411.3,514.77l-23.74-32.23-5.94,1.7a151.29,151.29,0,0,1-51.73,4.24l-5.93-.85-17,36.46-37.31-11.87,5.94-39-5.09-2.54c-15.27-8.48-28-19.51-39.86-33.08l-3.39-4.24L190,446.07,172.15,411.3l32.23-23.74-1.7-5.94a151.29,151.29,0,0,1-4.24-51.73l.85-5.93-36.46-17.81,11.87-37.32,39,5.94,2.54-5.09c6.79-11,14.42-22.05,23.75-30.53h33.07a79.41,79.41,0,0,0,70.39-42.4,64,64,0,0,1,12.72.85l5.94.84,17.81-35.61,37.31,11.87-5.09,38.16,5.09,2.54c15.27,8.49,28,19.51,39.86,33.08l3.39,4.24L497.81,240l17.8,34.77-32.22,23.74,1.69,5.94a151,151,0,0,1,4.24,51.73l-.84,5.94,35.61,17.81Z" fill="#20b5bc"/><polygon points="206.92 162.83 250.18 162.83 250.18 119.58 237.45 132.3 186.57 80.56 168.76 98.37 220.49 150.1 206.92 162.83" fill="#e94444"/><polygon points="142.47 106.01 99.22 106.01 99.22 149.26 112.79 136.54 163.67 188.27 181.48 170.46 129.75 118.73 142.47 106.01" fill="#45a308"/></g></g></g></svg>