<svg xmlns="http://www.w3.org/2000/svg" viewBox="0 0 509.77 526.08"><g id="Layer_2" data-name="Layer 2"><g id="temperature"><path d="M305.21,384.92,296,359.43H204.51l-13.81,25.7-21.87,17.11,20.62,69.25,31.72,21.8a233.81,233.81,0,0,0,54.44.06l32.13-20.79,11.15-65.41Z" fill="#6bd9e7"/><path d="M167,395.9l-66.58-28L86.09,321.46l-50.16-14L29,337A232.25,232.25,0,0,0,163.71,478.85l27-3.16Z" fill="#2ed1e2"/><path d="M406,265l-8-36.36-69,3.83L313.88,265h-1v.32l-32.13,10.4-5.14,73.74,29.6,35.48,13.68,35.18L380,403.83,389.92,376l24.41,5.82,7.72-81.52Z" fill="#6bd9e7"/><path d="M206.94,293.27,182.69,265l-8.56-25.88H102.44L86.09,265,64.52,280.7l7.89,61.63,28,25.6,18,25.52L178,403.83l12.75-18.7,23.57-15.95Z" fill="#6bd9e7"/><path d="M96,144.74,62.64,149.8,35.93,171.62a230.8,230.8,0,0,0-18.88,91.73c0,.54,0,1.09,0,1.63L32.49,280.7H74.22L86.09,265l37.3-24.67,4.38-57.69Z" fill="#2ed1e2"/><path d="M304.55,144.74l-13.07-23.1H210.42L190.7,144.83,167,163.92l-4.44,86L182.69,265l11.17,21.45h105l14-21.45,21.92-19.53v-73Z" fill="#6bd9e7"/><path d="M423.73,0a69.59,69.59,0,0,0-57.57,111.06l31.46,43.39a63.54,63.54,0,0,1,10.65,23.83l2.35,10.9a11.69,11.69,0,0,0,22.85,0l2.36-10.9a63.52,63.52,0,0,1,10.64-23.83l31.47-43.38A69.61,69.61,0,0,0,423.73,0Z" fill="#ee6161"/><path d="M360.67,36.78a69.56,69.56,0,0,0,5.49,74.3l31.46,43.39a63.54,63.54,0,0,1,10.65,23.83l2.35,10.9v0q9.31,3.44,17.87,7.24a11.62,11.62,0,0,0,5-7.27l2.36-10.9a63.52,63.52,0,0,1,10.64-23.83l17.24-23.76a254.77,254.77,0,0,0-103-93.93Z" fill="#e94444"/><path d="M362.28,66.5l-36-21.39a229.89,229.89,0,0,0-56.15-12.35s-18.45,15-20.87,16.56,7.24,72.07,7.24,72.07l48.1,23.35,17.71,26.64,63,5.57,7.31-15.88,16.56-24.68Z" fill="#6bd9e7"/><path d="M223.28,33.15a230.49,230.49,0,0,0-118.83,49L96,160.51l4.12,14.93,60.33,7.18,30.24-37.8,32.58-17.95,14.6-55.5Z" fill="#6bd9e7"/><path d="M396.43,47.43a33.88,33.88,0,1,1-8.26,22.17A33.8,33.8,0,0,1,396.43,47.43Z" fill="#f9f7f8"/><path d="M422.05,103.48A33.73,33.73,0,0,0,440,98.36,255.07,255.07,0,0,0,391.5,54.93a33.9,33.9,0,0,0,30.55,48.55Z" fill="#efedef"/><path d="M452.71,339.69,393,343.14,369.89,376l-51,71.53,9.57,33.26a232.28,232.28,0,0,0,126.18-111.6Z" fill="#2ed1e2"/><path d="M356.49,468.28a232.52,232.52,0,0,0,98.15-99.1l-1.94-29.49L393,343.14,369.89,376l-39.83,55.85Z" fill="#02c7dd"/><path d="M399.18,233.82A116.73,116.73,0,0,0,302.1,381.19l3.11,3.73,10.22,26.3q2.44,3.88,5.2,7.61l.49.68L380,403.82,389.92,376l24.41,5.82,7.72-81.52L406,265Z" fill="#2ed1e2"/><path d="M305.21,384.92,389.92,376c-13.63,44.58-35.15,81.24-61.46,104.79a229.9,229.9,0,0,1-52.85,12.57c12.63-23.1,23-61.26,29.6-108.43Z" fill="#a6e7f0"/><path d="M190.7,385.13c6.79,47.55,17.51,85.71,30.47,108.16a230,230,0,0,1-57.46-14.44C136,452.68,113.81,414,100.37,367.93A484.54,484.54,0,0,0,190.7,385.13Z" fill="#a6e7f0"/><path d="M312.88,265v2.16a864.76,864.76,0,0,1-7.67,117.78l-12.65,1.34c-14.47,1.09-29.32,1.66-44.47,1.66-19.7,0-38.9-1-57.39-2.79-5.11-35.67-8-76.61-8-120.15Z" fill="#2ed1e2"/><path d="M469.85,194.68l-16-26.34L404.12,149.8,392.6,161.07l-20.25,12.44L382,245.45S406,266,406,265l3.16,18.22,58.54,3.23L480.18,265c0-.54,0-1.09,0-1.63a231.76,231.76,0,0,0-10.34-68.67Z" fill="#2ed1e2"/><path d="M406,265h74.18a230.37,230.37,0,0,1-25.54,104.2L389.92,376c10.19-33.31,16-71,16.08-111Z" fill="#02c7dd"/><path d="M102.27,280.7a372.4,372.4,0,0,1,2.33-41.6h-2.16L86.09,265,64.52,280.7l7.89,61.63,28,25.6,18,25.52,1.64.29a363.94,363.94,0,0,1-17.74-113Z" fill="#2ed1e2"/><path d="M86.09,265a368.13,368.13,0,0,0,14.28,103C72.62,359.68,48.42,349.18,29,337a231.33,231.33,0,0,1-11.94-72Z" fill="#6bd9e7"/><path d="M406,263.92V265H312.87c-.09-43.65-3.11-84.64-8.32-120.23a488.12,488.12,0,0,1,88.05,16.33A389.83,389.83,0,0,1,406,263.92Z" fill="#a6e7f0"/><path d="M96,160.51l4.12,14.93,23.8,2.83,30.91-42.61A97.39,97.39,0,0,0,168.69,46a231.11,231.11,0,0,0-64.24,36.16Z" fill="#02c7dd"/><path d="M96,144.74,62.64,149.8,35.93,171.62q-2.24,5.19-4.23,10.51l.77,1.06a48.27,48.27,0,0,1,8.14,18.22l2.58,12a34,34,0,0,0,66.45,0l2.59-12a48.1,48.1,0,0,1,8.13-18.22l3.66-5Z" fill="#02c7dd"/><path d="M190.7,144.83c-5.11,35.67-8,76.61-8,120.15H86.09q0-7.74.31-15.37L96,160.51,158.22,149Q174,146.47,190.7,144.83Z" fill="#a6e7f0"/><path d="M326.23,45.11A232.16,232.16,0,0,1,469.84,194.68c-20.56-13.39-46.85-24.84-77.24-33.61C378.85,111.05,355.36,70.11,326.23,45.11Z" fill="#a6e7f0"/><path d="M272.25,35.25c13.72,21.53,25.11,60.39,32.3,109.49-18.21-1.77-37.1-2.7-56.46-2.7-19.69,0-38.89,1-57.39,2.79C197.86,94.71,209.37,55,223.28,33.15a235.63,235.63,0,0,1,25.34-1.37q10.86,0,21.46,1Z" fill="#2ed1e2"/><path d="M104.45,82.12,96,160.51,35.93,171.62A232.23,232.23,0,0,1,104.45,82.12Z" fill="#2ed1e2"/><path d="M480.18,265c0-.54,0-1.09,0-1.63q0-5.11-.23-10.18a115.42,115.42,0,0,0-62.83-20.3l-2.8,0A116.24,116.24,0,0,0,381,237.69l1,7.76S406,266,406,265l3.16,18.22,58.53,3.23Z" fill="#02c7dd"/><path d="M406,265v-1.06q0-15.6-1.13-30.7A116.24,116.24,0,0,0,334,265Z" fill="#6bd9e7"/><path d="M297.73,349.44a116.6,116.6,0,0,0,5.56,35.68l1.92-.2a834.11,834.11,0,0,0,7.33-92.29,115.83,115.83,0,0,0-14.81,56.81Z" fill="#02c7dd"/><path d="M304.62,389a116,116,0,0,0,16,29.81l28.58,39.4c16.91-22,30.86-50,40.71-82.24l-84.72,8.93c-.19,1.37-.38,2.74-.58,4.1Z" fill="#6bd9e7"/><path d="M416.63,254a95.45,95.45,0,0,0-78.94,152.3l43.14,59.49a86.8,86.8,0,0,1,14.6,32.68l3.23,14.94a16,16,0,0,0,31.34,0l3.23-14.94a86.8,86.8,0,0,1,14.6-32.68L491,406.32a95,95,0,0,0,18.79-58.43C509,297,467.56,255.22,416.63,254Z" fill="#ee6161"/><path d="M429,492a87,87,0,0,0-14.6-32.68l-43.15-59.49A95.47,95.47,0,0,1,413.12,254a95.45,95.45,0,0,0-75.43,152.32l43.14,59.49a86.8,86.8,0,0,1,14.6,32.68l3.23,14.94a16,16,0,0,0,31.34,0l1.81-8.4Z" fill="#e94444"/><path d="M379.21,319a46.45,46.45,0,1,1-11.34,30.4A46.31,46.31,0,0,1,379.21,319Z" fill="#f9f7f8"/><path d="M124.33,155.34,96,160.51l-9.61,89.1q-.3,7.63-.31,15.37H102.6A359.45,359.45,0,0,1,124.33,155.34Z" fill="#6bd9e7"/><path d="M111.88,201.74A48.27,48.27,0,0,1,120,183.52l23.11-31.72L96,160.51l-8.38,77.74A33.32,33.32,0,0,0,109.3,213.7Z" fill="#2ed1e2"/><path d="M78.26,1.2A76.42,76.42,0,0,0,15.05,123.14L49.6,170.77a69.63,69.63,0,0,1,11.69,26.17l2.58,12a12.83,12.83,0,0,0,25.09,0l2.59-12a69.63,69.63,0,0,1,11.69-26.17l34.54-47.63A76.42,76.42,0,0,0,78.26,1.2Z" fill="#ee6161"/><path d="M89.32,196.94a69.63,69.63,0,0,0-11.69-26.17L43.09,123.14A76.43,76.43,0,0,1,90.4,2.46,77.2,77.2,0,0,0,78.26,1.2,76.42,76.42,0,0,0,15.05,123.14L49.6,170.77a69.63,69.63,0,0,1,11.69,26.17l2.58,12a12.84,12.84,0,0,0,25.09,0l1.47-6.82Z" fill="#e94444"/><path d="M48.29,53.25A37.2,37.2,0,1,1,39.22,77.6a37.12,37.12,0,0,1,9.07-24.35Z" fill="#f9f7f8"/><path d="M113.58,371.62c-4.48-1.18-8.89-2.4-13.21-3.69,12.56,43.07,32.79,79.65,58,105.61a334.88,334.88,0,0,1-44.76-101.92Z" fill="#6bd9e7"/></g></g></svg>